<?xml version="1.0" encoding="UTF-8"?>
<svg id="Layer_2" data-name="Layer 2" xmlns="http://www.w3.org/2000/svg" viewBox="0 0 195.51 266">
  <defs>
    <style>
      .cls-1 {
        fill: #fff;
      }

      .cls-2 {
        fill: #164450;
      }

      .cls-3 {
        fill: none;
        stroke: #fff;
        stroke-miterlimit: 11.34;
        stroke-width: 2.74px;
      }
    </style>
  </defs>
  <g id="Layer_1-2" data-name="Layer 1">
    <g id="g12860">
      <rect id="rect12854" class="cls-1" width="195.51" height="266" rx="8.5" ry="8.5"/>
      <path id="rect12856" class="cls-2" d="M20.54,12.09h154.43c4.49,0,8.13,3.69,8.13,8.24v225.33c0,4.55-3.64,8.24-8.13,8.24H20.54c-4.49,0-8.13-3.69-8.13-8.24V20.33c0-4.55,3.64-8.24,8.13-8.24Z"/>
      <path id="path12858" class="cls-3" d="M23.81,22.12c29.32,88.86,54.67,145.14,73.95,176.45,19.28-31.31,44.64-87.59,73.95-176.45M134.73,26.09c-14.54,21.38-26.81,42.23-36.98,61.93-10.17-19.7-22.44-40.54-36.98-61.93M23.81,243.88c29.32-88.86,54.67-145.14,73.95-176.45,19.28,31.31,44.64,87.59,73.95,176.45M134.73,239.91c-14.54-21.38-26.81-42.23-36.98-61.93-10.17,19.7-22.44,40.54-36.98,61.93"/>
    </g>
  </g>
</svg>